<?xml version="1.0" encoding="UTF-8" standalone="no"?>
<svg
   xmlns:dc="http://purl.org/dc/elements/1.1/"
   xmlns:cc="http://creativecommons.org/ns#"
   xmlns:rdf="http://www.w3.org/1999/02/22-rdf-syntax-ns#"
   xmlns:svg="http://www.w3.org/2000/svg"
   xmlns="http://www.w3.org/2000/svg"
   xmlns:sodipodi="http://sodipodi.sourceforge.net/DTD/sodipodi-0.dtd"
   xmlns:inkscape="http://www.inkscape.org/namespaces/inkscape"
   sodipodi:docname="preload2.svg"
   inkscape:version="1.0 (4035a4fb49, 2020-05-01)"
   id="svg8"
   version="1.1"
   viewBox="0 0 450.54889 310.52667"
   height="310.52667mm"
   width="450.54889mm">
  <defs
     id="defs2">
    <filter
       id="filter50"
       style="color-interpolation-filters:sRGB;"
       inkscape:menu-tooltip="Soft pastel ridge"
       inkscape:menu="Ridges"
       inkscape:label="Matte Ridge">
      <feGaussianBlur
         id="feGaussianBlur24"
         result="result1"
         stdDeviation="0.5" />
      <feBlend
         id="feBlend26"
         in2="result1"
         result="result5"
         mode="normal"
         in="SourceGraphic" />
      <feGaussianBlur
         id="feGaussianBlur28"
         in="result5"
         result="result6"
         stdDeviation="3" />
      <feComposite
         id="feComposite30"
         result="result8"
         in2="result6"
         in="result6"
         operator="xor" />
      <feComposite
         id="feComposite32"
         in2="result8"
         in="result6"
         result="fbSourceGraphic"
         operator="in" />
      <feColorMatrix
         id="feColorMatrix34"
         values="0 0 0 -1 0 0 0 0 -1 0 0 0 0 -1 0 0 0 0 1 0 "
         in="fbSourceGraphic"
         result="fbSourceGraphicAlpha" />
      <feGaussianBlur
         id="feGaussianBlur36"
         stdDeviation="0.5"
         in="fbSourceGraphic"
         result="result0" />
      <feSpecularLighting
         id="feSpecularLighting40"
         in="result0"
         result="result1"
         lighting-color="rgb(255,255,255)"
         surfaceScale="2"
         specularConstant="2"
         specularExponent="55">
        <fePointLight
           id="fePointLight38"
           x="-5000"
           y="-10000"
           z="20000" />
      </feSpecularLighting>
      <feComposite
         id="feComposite42"
         k1="1"
         in2="fbSourceGraphicAlpha"
         in="result1"
         result="result2"
         operator="arithmetic" />
      <feComposite
         id="feComposite44"
         in2="result2"
         in="fbSourceGraphic"
         result="result4"
         operator="arithmetic"
         k2="0.5"
         k3="1" />
      <feComposite
         id="feComposite46"
         result="result91"
         in2="result4"
         in="result9"
         operator="over" />
      <feBlend
         id="feBlend48"
         in2="result91"
         mode="screen" />
    </filter>
    <filter
       id="filter253"
       style="color-interpolation-filters:sRGB;"
       x="-0.5"
       width="2"
       y="-0.5"
       height="2"
       inkscape:menu-tooltip="Gel Ridge metallized at its top"
       inkscape:menu="Ridges"
       inkscape:label="Metallized Ridge">
      <feGaussianBlur
         id="feGaussianBlur229"
         result="result1"
         stdDeviation="1" />
      <feGaussianBlur
         id="feGaussianBlur231"
         in="result1"
         result="result6"
         stdDeviation="8" />
      <feComposite
         id="feComposite233"
         result="result8"
         in2="result1"
         in="result6"
         operator="atop" />
      <feComposite
         id="feComposite235"
         in2="result8"
         in="result6"
         result="fbSourceGraphic"
         operator="xor" />
      <feColorMatrix
         id="feColorMatrix237"
         values="0 0 0 -1 0 0 0 0 -1 0 0 0 0 -1 0 0 0 0 2 0 "
         in="fbSourceGraphic"
         result="fbSourceGraphicAlpha" />
      <feGaussianBlur
         id="feGaussianBlur239"
         stdDeviation="2.5"
         in="fbSourceGraphicAlpha"
         result="result0" />
      <feSpecularLighting
         id="feSpecularLighting243"
         in="result0"
         result="result1"
         lighting-color="rgb(255,255,255)"
         surfaceScale="4"
         specularConstant="1"
         specularExponent="35">
        <fePointLight
           id="fePointLight241"
           x="-5000"
           y="-10000"
           z="20000" />
      </feSpecularLighting>
      <feComposite
         id="feComposite245"
         in2="fbSourceGraphicAlpha"
         in="result1"
         result="result2"
         operator="in" />
      <feComposite
         id="feComposite247"
         in2="result2"
         in="fbSourceGraphic"
         result="result4"
         operator="arithmetic"
         k2="1"
         k3="1" />
      <feComposite
         id="feComposite249"
         result="result91"
         in2="result4"
         in="result9"
         operator="atop" />
      <feBlend
         id="feBlend251"
         in2="result91"
         mode="multiply" />
    </filter>
    <filter
       id="filter3168"
       style="color-interpolation-filters:sRGB;"
       height="1.5"
       width="1.5"
       y="-0.25"
       x="-0.25"
       inkscape:menu-tooltip="Bubble effect with refraction and glow"
       inkscape:menu="Ridges"
       inkscape:label="Glowing Bubble">
      <feGaussianBlur
         id="feGaussianBlur3144"
         result="result1"
         stdDeviation="1" />
      <feGaussianBlur
         id="feGaussianBlur3146"
         in="result1"
         result="result6"
         stdDeviation="10" />
      <feComposite
         id="feComposite3148"
         result="result8"
         in2="result1"
         in="result6"
         operator="atop" />
      <feComposite
         id="feComposite3150"
         in2="result8"
         in="result6"
         result="fbSourceGraphic"
         operator="xor" />
      <feColorMatrix
         id="feColorMatrix3152"
         values="0 0 0 -1 0 0 0 0 -1 0 0 0 0 -1 0 0 0 0 2 0 "
         in="fbSourceGraphic"
         result="fbSourceGraphicAlpha" />
      <feGaussianBlur
         id="feGaussianBlur3154"
         stdDeviation="1"
         in="fbSourceGraphicAlpha"
         result="result0" />
      <feSpecularLighting
         id="feSpecularLighting3158"
         in="result0"
         result="result1"
         lighting-color="rgb(255,255,255)"
         surfaceScale="-2"
         specularConstant="1.5"
         specularExponent="35">
        <feDistantLight
           id="feDistantLight3156"
           elevation="60"
           azimuth="230" />
      </feSpecularLighting>
      <feComposite
         id="feComposite3160"
         in2="fbSourceGraphicAlpha"
         in="result1"
         result="result2"
         operator="in" />
      <feComposite
         id="feComposite3162"
         in2="result2"
         in="fbSourceGraphic"
         result="result4"
         operator="arithmetic"
         k2="1"
         k3="1" />
      <feComposite
         id="feComposite3164"
         result="result91"
         in2="result4"
         in="result9"
         operator="atop" />
      <feBlend
         id="feBlend3166"
         in2="result91"
         mode="multiply" />
    </filter>
  </defs>
  <sodipodi:namedview
     inkscape:window-maximized="1"
     inkscape:window-y="-8"
     inkscape:window-x="-8"
     inkscape:window-height="715"
     inkscape:window-width="1360"
     fit-margin-bottom="0"
     fit-margin-right="0"
     fit-margin-left="0"
     fit-margin-top="0"
     showgrid="false"
     inkscape:document-rotation="0"
     inkscape:current-layer="layer1"
     inkscape:document-units="mm"
     inkscape:cy="606.22288"
     inkscape:cx="856.46025"
     inkscape:zoom="0.35"
     inkscape:pageshadow="2"
     inkscape:pageopacity="0.0"
     borderopacity="1.0"
     bordercolor="#666666"
     pagecolor="#ffffff"
     id="base" />
  <metadata
     id="metadata5">
    <rdf:RDF>
      <cc:Work
         rdf:about="">
        <dc:format>image/svg+xml</dc:format>
        <dc:type
           rdf:resource="http://purl.org/dc/dcmitype/StillImage" />
        <dc:title />
      </cc:Work>
    </rdf:RDF>
  </metadata>
  <g
     transform="translate(164.12747,-1.5411431)"
     id="layer1"
     inkscape:groupmode="layer"
     inkscape:label="Layer 1">
    <rect
       y="1.5411434"
       x="-164.88342"
       height="310.69644"
       width="453.57144"
       id="recbg"
       style="fill:#000000;fill-rule:evenodd;stroke-width:0.264583" />
    <g
       id="ai2"
       style="opacity:1;fill:#ffffff;filter:url(#filter253)"
       transform="translate(0.75593971,-18.142861)">
      <path
         style="color:#000000;font-style:normal;font-variant:normal;font-weight:normal;font-stretch:normal;font-size:medium;line-height:normal;font-family:sans-serif;font-variant-ligatures:normal;font-variant-position:normal;font-variant-caps:normal;font-variant-numeric:normal;font-variant-alternates:normal;font-variant-east-asian:normal;font-feature-settings:normal;font-variation-settings:normal;text-indent:0;text-align:start;text-decoration:none;text-decoration-line:none;text-decoration-style:solid;text-decoration-color:#000000;letter-spacing:normal;word-spacing:normal;text-transform:none;writing-mode:lr-tb;direction:ltr;text-orientation:mixed;dominant-baseline:auto;baseline-shift:baseline;text-anchor:start;white-space:normal;shape-padding:0;shape-margin:0;inline-size:0;clip-rule:nonzero;display:inline;overflow:visible;visibility:visible;isolation:auto;mix-blend-mode:normal;color-interpolation:sRGB;color-interpolation-filters:linearRGB;solid-color:#000000;solid-opacity:1;vector-effect:none;fill:#ffffff;fill-opacity:1;fill-rule:nonzero;stroke:none;stroke-width:0.0784571;stroke-linecap:butt;stroke-linejoin:miter;stroke-miterlimit:4;stroke-dasharray:none;stroke-dashoffset:0;stroke-opacity:1;color-rendering:auto;image-rendering:auto;shape-rendering:auto;text-rendering:auto;enable-background:accumulate;stop-color:#000000;stop-opacity:1"
         d="m -27.719286,224.18169 c -0.193754,-0.0171 -0.907122,-0.0735 -1.585262,-0.12532 -6.626437,-0.50678 -13.340284,-2.26146 -19.374862,-5.06369 -18.44147,-8.5635 -31.893384,-27.08733 -37.369727,-51.45962 -2.390227,-10.63762 -3.241426,-22.75973 -2.364958,-33.67984 1.700974,-21.19281 10.061701,-40.708733 23.317854,-54.429403 10.463151,-10.8298 23.638861,-17.49722 37.623552,-19.03898 8.725197,-0.96192 16.490881,-0.0745 24.3733884,2.78522 13.2772386,4.81691 26.1171566,14.76008 41.5552896,32.18018 4.081197,4.60515 7.302267,8.446343 15.967915,19.042053 2.210552,2.70291 4.039388,4.91438 4.064076,4.91438 0.02469,0 1.103885,-1.28405 2.398219,-2.85343 3.240952,-3.92969 5.550397,-6.622 8.877538,-10.34932 1.560497,-1.74817 3.221746,-3.61096 3.691667,-4.13953 0.552981,-0.622 0.964727,-1.0129 1.167119,-1.10804 0.483378,-0.22722 2.34487,-1.188013 3.941201,-2.034213 4.245585,-2.25055 6.002274,-3.1897 7.116065,-3.80439 0.678139,-0.37426 1.930496,-1.06137 2.783013,-1.52692 1.60375,-0.87579 3.50438,-1.92749 5.21375,-2.885 0.54251,-0.30389 1.63635,-0.91254 2.43074,-1.35257 0.79439,-0.44003 1.824811,-1.01153 2.289821,-1.26999 5.192877,-2.88633 8.449497,-4.15363 10.371407,-4.03597 0.56185,0.0344 0.77068,0.0837 0.95579,0.22553 0.41825,0.32054 0.50002,0.49408 0.52435,1.11281 0.0369,0.93895 -0.4266,2.40498 -1.39646,4.41665 -0.52588,1.09075 -2.45363,4.67019 -3.52199,6.53958 -0.42566,0.7448 -0.94089,1.64905 -1.14498,2.00943 -0.20407,0.36039 -0.62467,1.08772 -0.93465,1.61629 -0.98976,1.687713 -4.192727,7.132623 -4.728177,8.037733 -2.716831,4.59235 -4.935921,8.67175 -7.770401,14.28445 -2.37422,4.70131 -2.994978,5.88635 -3.274407,6.25088 -0.155651,0.20306 -0.806137,0.97098 -1.445526,1.70648 -1.302606,1.49842 -5.014219,6.09446 -7.782685,9.6372 l -1.829146,2.34071 0.456161,0.5382 c 0.250887,0.29602 1.121562,1.32207 1.93483,2.28013 0.813267,0.95806 3.634625,4.3592 6.269683,7.5581 7.94552,9.64567 9.96854,12.0203 13.598021,15.96138 12.123667,13.16448 22.539217,20.01071 33.396187,21.9516 3.41202,0.60996 7.26553,0.68914 10.60364,0.21791 7.69844,-1.0868 14.84478,-4.92558 20.855,-11.20262 1.16192,-1.2135 3.58138,-4.21984 4.56871,-5.67694 5.08002,-7.49707 8.10929,-16.08227 9.14615,-25.92092 0.18184,-1.72547 0.1825,-5.84985 0.001,-7.29512 -0.12055,-0.96076 -0.33382,-2.15565 -0.46781,-2.621 -0.0346,-0.12012 -0.16416,-0.57225 -0.28792,-1.00471 -0.68583,-2.39656 -1.80921,-4.58158 -5.05317,-9.82875 -1.35815,-2.19684 -2.41252,-3.93782 -2.98946,-4.93622 -0.56886,-0.9844 -0.61878,-1.10705 -0.81772,-2.00943 -0.96823,-4.39163 -1.44702,-9.15038 -1.45039,-14.4155 -0.002,-3.04512 0.0642,-4.36988 0.35096,-7.033013 0.54438,-5.05475 1.20932,-8.19693 3.76239,-17.77912 0.65294,-2.45063 1.20918,-4.55398 1.23607,-4.67411 0.16201,-0.72357 1.15626,-3.62986 1.40476,-4.10623 0.52701,-1.01029 0.85103,-1.37654 1.44011,-1.62778 0.46106,-0.19664 0.58861,-0.21563 1.09207,-0.16258 0.62329,0.0657 1.4509,0.35641 2.13788,0.75101 0.24229,0.13917 0.45517,0.25305 0.47307,0.25305 0.0657,0 1.57965,0.94985 2.50351,1.57074 2.08746,1.40293 5.35566,3.85706 7.20859,5.41303 0.27849,0.23386 1.05664,0.86547 1.72923,1.40358 5.2986,4.23924 9.58478,9.28986 13.19735,15.55111 0.84496,1.46446 0.88019,1.54767 1.25752,2.97046 1.0155,3.829153 1.62325,7.866753 1.91343,12.711853 0.15583,2.60205 0.10489,8.60203 -0.11722,13.80393 -0.1128,2.64193 -0.12555,3.78009 -0.0998,8.9114 0.0567,11.2986 0.0299,12.83429 -0.2938,16.81808 -2.25346,27.73643 -15.86671,52.15669 -36.06283,64.69163 -8.54561,5.30392 -17.77061,8.28305 -27.72992,8.9551 -1.72022,0.11609 -5.8203,0.11663 -7.38299,9.7e-4 -10.73729,-0.7946 -21.06569,-4.87764 -31.73092,-12.54391 -8.940588,-6.42658 -17.980812,-15.24567 -29.027017,-28.31697 -2.224954,-2.63285 -8.943717,-10.84113 -12.239455,-14.95287 l -2.737783,-3.41564 -4.307826,5.26425 c -9.077675,11.09309 -12.896198,15.58652 -17.729718,20.86335 -12.308129,13.43699 -23.168752,22.05983 -34.3583131,27.27895 -6.7410415,3.1442 -13.3332439,4.95093 -20.8088039,5.70309 -1.275664,0.12835 -7.978878,0.24562 -8.983152,0.15717 z m 9.177378,-33.44676 c 6.363643,-0.76141 12.2178816,-2.90234 18.54709286,-6.78278 6.85506004,-4.20285 13.51331614,-9.9541 21.12556814,-18.24779 2.818293,-3.07058 4.691001,-5.23736 8.495116,-9.82909 2.632429,-3.17746 10.856339,-13.57039 10.856339,-13.71965 0,-0.0563 -0.554539,-0.74824 -1.232312,-1.53768 -1.647095,-1.91847 -2.730265,-3.22056 -8.244032,-9.9102 C 23.874651,122.05571 21.736238,119.55018 18.28854,115.80715 7.0389779,103.59392 -2.7091288,96.847507 -12.6798,94.374757 c -1.364001,-0.33828 -2.751479,-0.59854 -4.294932,-0.80563 -1.384505,-0.18576 -5.547917,-0.26352 -6.97652,-0.1303 -6.826413,0.63657 -13.119917,3.25231 -18.669496,7.759493 -3.863647,3.13792 -7.259837,7.09619 -10.027355,11.6869 -4.538772,7.52884 -7.213548,16.3851 -7.795905,25.81247 -0.09382,1.51876 -0.09328,5.55475 9.8e-4,7.27069 0.843118,15.3496 6.472468,28.4228 15.732229,36.53543 5.730557,5.02064 12.443815,7.83834 19.9859,8.38854 1.043842,0.0761 5.092362,-0.0269 6.182994,-0.15742 z"
         id="path337" />
      <path
         id="path339"
         style="color:#000000;font-style:normal;font-variant:normal;font-weight:normal;font-stretch:normal;font-size:medium;line-height:normal;font-family:sans-serif;font-variant-ligatures:normal;font-variant-position:normal;font-variant-caps:normal;font-variant-numeric:normal;font-variant-alternates:normal;font-variant-east-asian:normal;font-feature-settings:normal;font-variation-settings:normal;text-indent:0;text-align:start;text-decoration:none;text-decoration-line:none;text-decoration-style:solid;text-decoration-color:#000000;letter-spacing:normal;word-spacing:normal;text-transform:none;writing-mode:lr-tb;direction:ltr;text-orientation:mixed;dominant-baseline:auto;baseline-shift:baseline;text-anchor:start;white-space:normal;shape-padding:0;shape-margin:0;inline-size:0;clip-rule:nonzero;display:inline;overflow:visible;visibility:visible;isolation:auto;mix-blend-mode:normal;color-interpolation:sRGB;color-interpolation-filters:linearRGB;solid-color:#000000;solid-opacity:1;vector-effect:none;fill:#ffffff;fill-opacity:1;fill-rule:nonzero;stroke:none;stroke-width:0.296531;stroke-linecap:butt;stroke-linejoin:miter;stroke-miterlimit:4;stroke-dasharray:none;stroke-dashoffset:0;stroke-opacity:1;color-rendering:auto;image-rendering:auto;shape-rendering:auto;text-rendering:auto;enable-background:accumulate;stop-color:#000000;stop-opacity:1"
         d="m 497.75,277.98633 c -7.86013,0.028 -15.88173,0.50072 -24.13086,1.41015 -52.89172,5.83112 -102.72511,31.04757 -142.29297,72.00196 -50.12916,51.88577 -81.73852,125.67841 -88.16992,205.80859 -3.31395,41.28922 -0.0981,87.11654 8.93945,127.33789 20.70586,92.1507 71.57703,162.20498 141.32618,194.59375 22.82451,10.59886 48.21614,17.23751 73.27929,19.1543 2.56278,0.19578 5.25929,0.40833 5.98828,0.47265 h 0.006 c 1.93614,0.17008 9.1946,0.13708 16.60352,0.008 7.41221,-0.12964 14.93718,-0.35309 17.36914,-0.59766 28.26898,-2.84428 53.20547,-9.68026 78.69726,-21.57031 42.31465,-19.73669 83.37348,-52.34447 129.90039,-103.13867 18.27048,-19.94616 32.70974,-36.93409 67.01954,-78.86133 l 16.1582,-19.75391 10.24023,12.77149 c 12.45761,15.54202 37.84937,46.56106 46.26172,56.51562 41.75396,49.40871 75.92747,82.75148 109.73242,107.05078 40.32603,28.98683 79.39363,44.43206 120.00583,47.4375 5.9253,0.43858 21.4084,0.4322 27.9258,-0.008 37.6647,-2.54158 72.5571,-13.81073 104.875,-33.86914 76.3797,-47.4059 127.8449,-139.74163 136.3652,-244.61328 1.2236,-15.05926 1.3295,-20.87641 1.1152,-63.58008 -0.097,-19.39355 -0.049,-23.68404 0.377,-33.66797 0.8396,-19.66462 1.0332,-42.34139 0.4434,-52.1914 -1.0972,-18.31964 -3.4012,-33.58712 -7.2422,-48.07032 -1.4264,-5.3783 -1.5679,-5.72814 -4.7618,-11.26367 -13.6619,-23.67864 -29.8754,-42.78647 -49.916,-58.82031 -2.5414,-2.0333 -5.4841,-4.41787 -6.5332,-5.29883 -7.0101,-5.88667 -19.3651,-15.1636 -27.2617,-20.4707 -1.7479,-1.17473 -4.05,-2.66191 -5.9492,-3.85352 -0.9496,-0.5958 -1.8021,-1.11601 -2.4297,-1.49023 -0.3137,-0.18713 -0.5699,-0.33905 -0.7598,-0.44336 -0.095,-0.0522 -0.1672,-0.0901 -0.2285,-0.11914 -0.03,-0.0144 -0.057,-0.0277 -0.082,-0.0371 -0.011,-0.005 -0.029,-0.0103 -0.043,-0.0137 -0.01,-0.002 -0.016,0.001 -0.023,0 0,-10e-4 -0.014,-0.0103 -0.029,-0.0156 -0.026,-0.011 -0.063,-0.0271 -0.1113,-0.0508 -0.096,-0.0472 -0.2296,-0.11305 -0.3907,-0.19922 -0.3224,-0.17235 -0.7541,-0.41733 -1.2109,-0.67969 -2.6138,-1.50135 -5.7551,-2.60576 -8.1426,-2.85742 -1.9091,-0.20114 -2.4527,-0.11682 -4.2011,0.62891 -1.1282,0.48113 -2.0086,1.07977 -2.8555,2.03711 -0.847,0.95734 -1.6599,2.2718 -2.6582,4.18554 -0.2446,0.46898 -0.65,1.48499 -1.1446,2.8125 -0.4946,1.32751 -1.0716,2.95576 -1.6386,4.61329 -1.1341,3.31504 -2.228,6.73777 -2.5391,8.12695 -0.023,0.0972 -0.17,0.69283 -0.4199,1.64648 -0.2498,0.95366 -0.604,2.27409 -1.0274,3.875 -0.8467,3.20183 -1.9926,7.50569 -3.2265,12.13672 -9.6498,36.21776 -12.1664,48.10791 -14.2246,67.21875 -1.0841,10.06814 -1.3279,15.08639 -1.3203,26.59766 0.011,19.90862 1.8223,37.90539 5.4843,54.51562 0.7525,3.41292 0.9566,3.91671 3.1075,7.63868 2.1823,3.77657 6.1692,10.35844 11.3027,18.6621 12.259,19.82918 16.4951,28.06977 19.082,37.10938 0.4678,1.63449 0.9531,3.33848 1.084,3.79297 0.4993,1.73416 1.3108,6.25989 1.7656,9.88476 0.6817,5.42778 0.6771,21.04596 -0.01,27.54297 -3.9166,37.16447 -15.3551,69.58392 -34.541,97.89844 -3.7217,5.49245 -12.872,16.86514 -17.25,21.4375 -22.6961,23.70365 -49.6752,38.19427 -78.7363,42.29688 -12.5986,1.77849 -27.1523,1.47616 -40.0313,-0.82618 -40.9909,-7.3279 -80.3321,-33.17864 -126.14251,-82.92187 -13.71622,-14.8938 -21.35471,-23.86063 -51.38477,-60.31641 -9.9595,-12.09059 -20.61899,-24.94436 -23.69531,-28.56836 -3.07376,-3.62101 -6.3683,-7.49657 -7.3164,-8.61523 l -1.64649,-1.94141 6.84375,-8.7539 c 10.46221,-13.38822 24.49392,-30.7588 29.41016,-36.41407 2.41744,-2.78082 4.86111,-5.67838 5.46093,-6.46093 1.086,-1.41672 3.42094,-5.88132 12.39454,-23.6504 10.71199,-21.21135 19.09847,-36.62229 29.36523,-53.97656 2.0245,-3.42213 14.13004,-24.00565 17.87109,-30.38476 1.172,-1.99846 2.75711,-4.73983 3.5293,-6.10352 0.77106,-1.3615 2.72527,-4.78085 4.33399,-7.5957 4.04023,-7.06949 11.31455,-20.59457 13.30859,-24.73047 3.66981,-7.6119 5.43459,-13.16015 5.29297,-16.76367 -0.0461,-1.17523 -0.14255,-1.93805 -0.44336,-2.57617 -0.30085,-0.63812 -0.7968,-1.12362 -1.59375,-1.73438 -0.36473,-0.27934 -0.76252,-0.472 -1.32813,-0.60547 -0.56556,-0.13345 -1.29832,-0.21605 -2.36328,-0.28125 -7.3389,-0.44929 -19.64576,4.36064 -39.27929,15.27344 -1.75735,0.97676 -5.65585,3.13576 -8.65821,4.79883 -3.00265,1.66323 -7.13267,3.9664 -9.18359,5.11523 -6.46011,3.61866 -13.64814,7.59259 -19.70899,10.90235 -3.22236,1.75969 -7.95608,4.35869 -10.51953,5.77343 -4.20779,2.32224 -10.8464,5.8671 -26.89258,14.37305 -6.03226,3.19765 -13.07473,6.83093 -14.88867,7.68359 -0.41819,0.19654 -0.99944,0.6605 -1.75,1.37305 -0.75055,0.71259 -1.66208,1.67206 -2.70898,2.84961 -1.77572,1.99733 -8.05327,9.04122 -13.95117,15.64844 -12.57595,14.08856 -21.30848,24.26379 -33.5586,39.11719 -2.44574,2.96549 -4.68374,5.66493 -6.32617,7.61914 -0.82121,0.97708 -1.49168,1.76962 -1.96289,2.3164 -0.23562,0.27326 -0.42609,0.48619 -0.55469,0.62891 -0.0439,0.0487 -0.0736,0.0718 -0.10351,0.10351 -0.0558,-0.062 -0.13561,-0.14297 -0.23633,-0.25976 -0.21343,-0.24756 -0.51844,-0.61264 -0.91406,-1.08399 -0.79125,-0.94269 -1.92256,-2.31104 -3.31446,-3.99414 -2.78379,-3.36623 -6.60201,-8.00949 -10.77929,-13.11718 C 750.52839,443.52556 738.34638,429.0046 722.91992,411.59766 664.56258,345.74833 616.01906,308.14719 565.80469,289.92969 543.44549,281.81793 521.3304,277.90276 497.75,277.98633 Z m 0,0.29492 c 23.54679,-0.0841 45.62213,3.82887 67.95117,11.92969 50.14901,18.19379 98.65769,55.75772 156.99805,121.58789 15.42354,17.40364 27.59393,31.9184 60.3457,71.96484 4.17756,5.10803 8.00084,9.75039 10.78516,13.11719 1.39215,1.68344 2.52233,3.04258 3.31445,3.98633 0.39606,0.47187 0.70874,0.8443 0.92383,1.09375 0.10753,0.12472 0.19055,0.21391 0.25,0.27929 0.0299,0.034 0.055,0.0628 0.0742,0.082 0.009,0.0113 0.0191,0.0139 0.0293,0.0215 0.005,0.004 0.0141,0.0234 0.0156,0.0234 7.8e-4,5.3e-4 0.0207,0.008 0.0215,0.008 5.8e-4,2.6e-4 0.066,0.0156 0.0664,0.0156 3.7e-4,0 0.0444,-0.008 0.0449,-0.008 4.9e-4,-1.5e-4 0.0207,-0.008 0.0215,-0.008 10e-4,-6e-4 0.0154,-0.0118 0.0215,-0.0156 0.0113,-0.008 0.0233,-0.0139 0.0312,-0.0215 0.0155,-0.0151 0.0312,-0.0312 0.0508,-0.0527 0.0389,-0.0397 0.0886,-0.0892 0.1543,-0.16211 0.13145,-0.14589 0.31834,-0.36049 0.55469,-0.63477 0.47269,-0.54852 1.14123,-1.34075 1.96289,-2.31836 1.64332,-1.95522 3.88775,-4.6512 6.33398,-7.61719 12.24842,-14.85135 20.97668,-25.02284 33.55078,-39.10937 5.89797,-6.6073 12.17474,-13.65219 13.95117,-15.65039 1.04311,-1.17328 1.95403,-2.12438 2.69532,-2.82813 0.74128,-0.70378 1.32121,-1.1573 1.66797,-1.32031 1.83993,-0.86491 8.86981,-4.49258 14.90429,-7.69141 16.04644,-8.50608 22.68703,-12.05662 26.89844,-14.38085 2.56265,-1.41431 7.29767,-4.01207 10.51953,-5.77149 6.06199,-3.31038 13.24202,-7.28508 19.70313,-10.9043 2.04994,-1.14828 6.18726,-3.45225 9.18945,-5.11523 3.00248,-1.66314 6.89465,-3.82187 8.65234,-4.79883 19.61974,-10.90513 31.9283,-15.67643 39.11719,-15.23633 1.05857,0.0648 1.78153,0.14721 2.31641,0.27344 0.53484,0.1262 0.88373,0.29017 1.21875,0.54688 0.78383,0.60072 1.23381,1.05353 1.50586,1.63086 0.27212,0.57732 0.36844,1.30351 0.41406,2.46679 0.1372,3.49406 -1.60229,9.02863 -5.26367,16.62305 -1.98116,4.10914 -9.26718,17.6457 -13.30274,24.70703 -1.6089,2.81513 -3.56032,6.23307 -4.33203,7.5957 -0.77038,1.36052 -2.35813,4.10844 -3.5293,6.10547 -3.74063,6.37839 -15.84809,26.95731 -17.87109,30.37696 -10.26991,17.35955 -18.65904,32.78269 -29.37305,53.99804 -8.97326,17.76839 -11.3312,22.26083 -12.35742,23.59961 -0.57675,0.75239 -3.04716,3.66645 -5.46289,6.44531 -4.93023,5.67137 -18.95124,23.03815 -29.41601,36.42969 l -6.99024,8.94531 1.80078,2.12696 c 0.94837,1.11896 4.24068,4.99422 7.31446,8.61523 3.07121,3.61799 13.73822,16.47638 23.69726,28.56641 30.03057,36.45641 37.68116,45.43498 51.40039,60.33203 45.83305,49.7678 85.22534,75.66641 126.30274,83.00976 12.9127,2.30839 27.4866,2.61165 40.1211,0.82813 29.1318,-4.11258 56.1766,-18.64383 78.9121,-42.38867 4.4051,-4.60056 13.5397,-15.95081 17.2813,-21.47266 19.2142,-28.35624 30.6707,-60.83264 34.5918,-98.03906 0.6898,-6.54592 0.698,-22.11228 0.01,-27.60938 -0.4564,-3.63756 -1.258,-8.14428 -1.7715,-9.92773 -0.1307,-0.45351 -0.626,-2.16047 -1.0937,-3.79492 -2.5974,-9.07612 -6.8491,-17.34717 -19.1114,-37.18164 -5.1327,-8.30242 -9.122,-14.88392 -11.3007,-18.6543 -2.1493,-3.71921 -2.3209,-4.14255 -3.0723,-7.55078 -3.6568,-16.58634 -5.4639,-34.56629 -5.4766,-54.45703 -0.01,-11.50692 0.2367,-16.50577 1.3203,-26.56836 2.0569,-19.09829 4.5699,-30.95147 14.2188,-67.16602 1.2339,-4.63118 2.3798,-8.93464 3.2266,-12.13672 0.4233,-1.60103 0.7676,-2.92876 1.0175,-3.88281 0.2499,-0.95405 0.3987,-1.52446 0.4278,-1.65429 0.3012,-1.34558 1.4005,-4.7867 2.5332,-8.09766 0.5663,-1.65548 1.1376,-3.28157 1.6308,-4.60547 0.4933,-1.3239 0.9118,-2.35196 1.1368,-2.7832 0.9935,-1.90468 1.7933,-3.19236 2.6132,-4.11914 0.82,-0.92679 1.6556,-1.49446 2.7539,-1.96289 1.7367,-0.74069 2.1561,-0.80532 4.0528,-0.60547 2.324,0.24495 5.4443,1.33691 8.0234,2.81836 0.459,0.26366 0.8928,0.50532 1.2188,0.67968 0.1629,0.0872 0.2965,0.15707 0.3984,0.20703 0.051,0.0249 0.09,0.0439 0.125,0.0586 0.019,0.007 0.037,0.0181 0.051,0.0234 0.01,0.003 0.012,0.003 0.023,0.006 0.01,0.002 0.02,-10e-4 0.031,0 0.011,0.005 0.034,0.0188 0.059,0.0312 0.052,0.0246 0.1285,0.0588 0.2208,0.10937 0.184,0.10118 0.4418,0.25723 0.7538,0.44336 0.6242,0.37225 1.4716,0.88935 2.42,1.48438 1.8968,1.19005 4.1995,2.67375 5.9434,3.8457 7.8826,5.29772 20.2361,14.57227 27.2324,20.44726 1.056,0.88681 3.9963,3.27429 6.539,5.3086 20.0118,16.0108 36.1981,35.08584 49.8438,58.73633 3.1932,5.5344 3.3124,5.81475 4.7383,11.1914 3.8352,14.4616 6.1302,29.70698 7.2265,48.01172 0.5881,9.81902 0.396,32.50333 -0.4433,52.16016 -0.4264,9.9866 -0.4724,14.28932 -0.375,33.68359 0.2143,42.70307 0.1079,48.50417 -1.1153,63.55859 -8.5136,104.78956 -59.9485,197.03836 -136.2324,244.38477 -32.2788,20.03422 -67.1161,31.28574 -104.7344,33.82422 -6.4858,0.43767 -21.9936,0.44336 -27.8808,0.008 -40.5516,-3.00098 -79.5606,-18.42179 -119.85358,-47.38476 -33.7793,-24.28018 -67.94454,-57.60395 -109.68945,-107.00196 -8.4062,-9.94726 -33.79886,-40.96896 -46.25391,-56.50781 l -10.46094,-13.05078 -16.39453,20.03516 c -34.30884,41.92603 -48.73949,58.90404 -67.00586,78.8457 -46.51091,50.77674 -87.54268,83.34953 -129.81055,103.06445 -25.46411,11.87713 -50.36237,18.70749 -78.60156,21.54883 -2.38944,0.24038 -9.93811,0.46802 -17.34765,0.59766 -7.40955,0.12963 -14.71667,0.15659 -16.58008,-0.008 -0.73561,-0.065 -3.42301,-0.27687 -5.98633,-0.47265 -25.02645,-1.91399 -50.38654,-8.5436 -73.17773,-19.12696 -69.653,-32.34302 -120.47599,-102.3058 -141.16612,-194.38654 -9.03029,-40.18901 -12.24296,-85.99937 -8.93164,-127.25586 6.42636,-80.06744 38.01306,-153.79352 88.08789,-205.62305 39.52368,-40.90867 89.29005,-66.09093 142.10938,-71.91406 8.23943,-0.90837 16.25263,-1.38214 24.10156,-1.41016 z m -1.46875,125.79102 c -3.8344,-0.0135 -7.31679,0.0659 -9.35352,0.25585 -25.82961,2.40864 -49.64114,12.30549 -70.63671,29.35743 -14.61712,11.87149 -27.46741,26.84462 -37.93555,44.20898 -17.16766,28.47746 -27.28002,61.97376 -29.48242,97.62695 -0.35558,5.75638 -0.35694,20.99799 0,27.4961 3.18832,58.04572 24.47721,107.49515 59.51172,138.18945 21.68128,18.99538 47.0853,29.6605 75.62109,31.74219 3.98263,0.29027 19.24447,-0.10027 23.40039,-0.59766 24.07347,-2.88041 46.22081,-10.97753 70.15625,-25.65234 25.9238,-15.89394 51.10411,-37.64524 79.88086,-68.99805 10.65319,-11.60685 17.73294,-19.79702 32.11133,-37.15234 4.97694,-6.00741 15.23338,-18.83044 24.24804,-30.22266 4.50733,-5.69612 8.7055,-11.03428 11.77539,-14.98437 1.53495,-1.97503 2.7822,-3.60134 3.65235,-4.75391 0.43507,-0.5763 0.78021,-1.03577 1.01172,-1.35937 0.11576,-0.16177 0.20421,-0.28806 0.26562,-0.38282 0.0306,-0.0472 0.0483,-0.0859 0.0664,-0.11914 0.009,-0.0151 0.0225,-0.033 0.0293,-0.0508 0.003,-0.008 0.004,-0.0199 0.008,-0.0312 0.003,-0.0113 0.008,-0.0407 0.008,-0.043 0,-0.003 -0.005,-0.0347 -0.008,-0.0449 -0.003,-0.0113 -0.004,-0.0258 -0.008,-0.0371 -0.007,-0.0189 -0.0117,-0.0393 -0.0215,-0.0586 -0.0197,-0.0389 -0.0493,-0.0834 -0.082,-0.13477 -0.0655,-0.1028 -0.15994,-0.23607 -0.2793,-0.39844 -0.23871,-0.32466 -0.58105,-0.76339 -1.0039,-1.29101 -0.84571,-1.05528 -2.01121,-2.45631 -3.29297,-3.94922 -6.22457,-7.25015 -10.31101,-12.16558 -31.15039,-37.44922 -26.95294,-32.70096 -35.03996,-42.1736 -48.07227,-56.32226 -42.52832,-46.17018 -79.39743,-71.69718 -117.12109,-81.05274 -5.16084,-1.27992 -10.40795,-2.2655 -16.2461,-3.04883 -3.29137,-0.4416 -10.66207,-0.71962 -17.05273,-0.74218 z m -0.004,0.30078 c 6.38586,0.0241 13.76213,0.30032 17.01172,0.73633 5.82891,0.78208 11.06903,1.76385 16.21875,3.04101 37.64519,9.3361 74.46511,34.81602 116.97266,80.96484 13.02903,14.14511 21.1102,23.61034 48.0625,56.31055 20.83949,25.28376 24.93425,30.20338 31.16015,37.45508 1.27991,1.49076 2.4425,2.88994 3.28516,3.94141 0.42133,0.52573 0.76176,0.96642 0.9961,1.28515 0.11716,0.1595 0.20647,0.28999 0.26562,0.38281 0.0272,0.0427 0.0459,0.0789 0.0586,0.10352 -0.0125,0.0227 -0.0263,0.0521 -0.0508,0.0898 -0.0568,0.0877 -0.14348,0.21513 -0.25781,0.375 -0.22866,0.31975 -0.56963,0.77632 -1.00391,1.35157 -0.86854,1.15045 -2.1198,2.77166 -3.65429,4.74609 -3.06899,3.94893 -7.26844,9.29066 -11.77539,14.98633 -9.01393,11.39131 -19.2698,24.211 -24.24219,30.21289 -14.37713,17.35381 -21.45307,25.54265 -32.10352,37.14648 -28.76468,31.33966 -53.91852,53.06382 -79.8125,68.93946 -23.90741,14.65765 -46.0094,22.74011 -70.03906,25.61523 -4.08823,0.48926 -19.43397,0.88252 -23.3418,0.59766 -28.47525,-2.07731 -53.81486,-12.71202 -75.45117,-31.66797 -34.96054,-30.62952 -56.22334,-79.99967 -59.4082,-137.98242 -0.35558,-6.47278 -0.35361,-21.74473 0,-27.46875 2.19966,-35.60882 12.29633,-69.05088 29.4375,-97.48438 10.45167,-17.33707 23.28074,-32.28854 37.86914,-44.13672 20.95399,-17.01815 44.71081,-26.88779 70.48242,-29.29101 2.01286,-0.18771 5.4888,-0.26447 9.32031,-0.25 z"
         transform="matrix(0.26458333,0,0,0.26458333,-152.78818,-13.577905)" />
    </g>
    <text
       xml:space="preserve"
       style="font-weight:bold;font-size:43.3267px;line-height:1.25;font-family:sans-serif;-inkscape-font-specification:'sans-serif Bold';fill:#ff0000;stroke-width:1.35395"
       x="-32.308205"
       y="247.35739"
       id="lodbg"
       transform="scale(0.91056511,1.0982191)"><tspan
         sodipodi:role="line"
         id="tspan3216"
         x="-32.308205"
         y="247.35739"
         style="fill:#ff0000;stroke-width:1.35395">Loading</tspan></text>
    <text
       transform="scale(0.92591555,1.0800121)"
       id="lod"
       y="251.12663"
       x="-37.48764"
       style="font-weight:bold;font-size:42.6083px;line-height:1.25;font-family:sans-serif;-inkscape-font-specification:'sans-serif Bold';fill:#00ffff;stroke-width:1.33151"
       xml:space="preserve"><tspan
         style="fill:#00ffff;stroke-width:1.33151"
         y="251.12663"
         x="-37.48764"
         id="tspan343"
         sodipodi:role="line">Loading</tspan></text>
    <text
       transform="scale(1.1088791,0.90181157)"
       id="p1"
       y="306.11502"
       x="124.43243"
       style="font-weight:bold;font-size:61.3544px;line-height:1.25;font-family:sans-serif;-inkscape-font-specification:'sans-serif Bold';fill:#00ffff;stroke-width:1.91732"
       xml:space="preserve"><tspan
         id="tspan3122"
         style="fill:#00ffff;stroke-width:1.91732"
         y="306.11502"
         x="124.43243"
         sodipodi:role="line">.</tspan><tspan
         id="tspan3126"
         style="fill:#00ffff;stroke-width:1.91732"
         y="382.80801"
         x="124.43243"
         sodipodi:role="line" /></text>
    <text
       xml:space="preserve"
       style="font-weight:bold;font-size:61.3544px;line-height:1.25;font-family:sans-serif;-inkscape-font-specification:'sans-serif Bold';fill:#00ffff;stroke-width:1.91732"
       x="140.79387"
       y="306.11502"
       id="p2"
       transform="scale(1.1088791,0.90181157)"><tspan
         sodipodi:role="line"
         x="140.79387"
         y="306.11502"
         style="fill:#00ffff;stroke-width:1.91732"
         id="tspan3128">.</tspan><tspan
         sodipodi:role="line"
         x="140.79387"
         y="382.80801"
         style="fill:#00ffff;stroke-width:1.91732"
         id="tspan3130" /></text>
    <text
       transform="scale(1.1088791,0.90181157)"
       id="p3"
       y="306.11502"
       x="156.47357"
       style="font-weight:bold;font-size:61.3544px;line-height:1.25;font-family:sans-serif;-inkscape-font-specification:'sans-serif Bold';fill:#00ffff;stroke-width:1.91732"
       xml:space="preserve"><tspan
         id="tspan3134"
         style="fill:#00ffff;stroke-width:1.91732"
         y="306.11502"
         x="156.47357"
         sodipodi:role="line">.</tspan><tspan
         id="tspan3136"
         style="fill:#00ffff;stroke-width:1.91732"
         y="382.80801"
         x="156.47357"
         sodipodi:role="line" /></text>
    <g
       transform="translate(0.75488138,-18.06328)"
       style="opacity:1;fill:#00ffff;filter:url(#filter253)"
       id="ai">
      <path
         id="path56"
         d="m -27.719286,224.18169 c -0.193754,-0.0171 -0.907122,-0.0735 -1.585262,-0.12532 -6.626437,-0.50678 -13.340284,-2.26146 -19.374862,-5.06369 -18.44147,-8.5635 -31.893384,-27.08733 -37.369727,-51.45962 -2.390227,-10.63762 -3.241426,-22.75973 -2.364958,-33.67984 1.700974,-21.19281 10.061701,-40.708733 23.317854,-54.429403 10.463151,-10.8298 23.638861,-17.49722 37.623552,-19.03898 8.725197,-0.96192 16.490881,-0.0745 24.3733884,2.78522 13.2772386,4.81691 26.1171566,14.76008 41.5552896,32.18018 4.081197,4.60515 7.302267,8.446343 15.967915,19.042053 2.210552,2.70291 4.039388,4.91438 4.064076,4.91438 0.02469,0 1.103885,-1.28405 2.398219,-2.85343 3.240952,-3.92969 5.550397,-6.622 8.877538,-10.34932 1.560497,-1.74817 3.221746,-3.61096 3.691667,-4.13953 0.552981,-0.622 0.964727,-1.0129 1.167119,-1.10804 0.483378,-0.22722 2.34487,-1.188013 3.941201,-2.034213 4.245585,-2.25055 6.002274,-3.1897 7.116065,-3.80439 0.678139,-0.37426 1.930496,-1.06137 2.783013,-1.52692 1.60375,-0.87579 3.50438,-1.92749 5.21375,-2.885 0.54251,-0.30389 1.63635,-0.91254 2.43074,-1.35257 0.79439,-0.44003 1.824811,-1.01153 2.289821,-1.26999 5.192877,-2.88633 8.449497,-4.15363 10.371407,-4.03597 0.56185,0.0344 0.77068,0.0837 0.95579,0.22553 0.41825,0.32054 0.50002,0.49408 0.52435,1.11281 0.0369,0.93895 -0.4266,2.40498 -1.39646,4.41665 -0.52588,1.09075 -2.45363,4.67019 -3.52199,6.53958 -0.42566,0.7448 -0.94089,1.64905 -1.14498,2.00943 -0.20407,0.36039 -0.62467,1.08772 -0.93465,1.61629 -0.98976,1.687713 -4.192727,7.132623 -4.728177,8.037733 -2.716831,4.59235 -4.935921,8.67175 -7.770401,14.28445 -2.37422,4.70131 -2.994978,5.88635 -3.274407,6.25088 -0.155651,0.20306 -0.806137,0.97098 -1.445526,1.70648 -1.302606,1.49842 -5.014219,6.09446 -7.782685,9.6372 l -1.829146,2.34071 0.456161,0.5382 c 0.250887,0.29602 1.121562,1.32207 1.93483,2.28013 0.813267,0.95806 3.634625,4.3592 6.269683,7.5581 7.94552,9.64567 9.96854,12.0203 13.598021,15.96138 12.123667,13.16448 22.539217,20.01071 33.396187,21.9516 3.41202,0.60996 7.26553,0.68914 10.60364,0.21791 7.69844,-1.0868 14.84478,-4.92558 20.855,-11.20262 1.16192,-1.2135 3.58138,-4.21984 4.56871,-5.67694 5.08002,-7.49707 8.10929,-16.08227 9.14615,-25.92092 0.18184,-1.72547 0.1825,-5.84985 0.001,-7.29512 -0.12055,-0.96076 -0.33382,-2.15565 -0.46781,-2.621 -0.0346,-0.12012 -0.16416,-0.57225 -0.28792,-1.00471 -0.68583,-2.39656 -1.80921,-4.58158 -5.05317,-9.82875 -1.35815,-2.19684 -2.41252,-3.93782 -2.98946,-4.93622 -0.56886,-0.9844 -0.61878,-1.10705 -0.81772,-2.00943 -0.96823,-4.39163 -1.44702,-9.15038 -1.45039,-14.4155 -0.002,-3.04512 0.0642,-4.36988 0.35096,-7.033013 0.54438,-5.05475 1.20932,-8.19693 3.76239,-17.77912 0.65294,-2.45063 1.20918,-4.55398 1.23607,-4.67411 0.16201,-0.72357 1.15626,-3.62986 1.40476,-4.10623 0.52701,-1.01029 0.85103,-1.37654 1.44011,-1.62778 0.46106,-0.19664 0.58861,-0.21563 1.09207,-0.16258 0.62329,0.0657 1.4509,0.35641 2.13788,0.75101 0.24229,0.13917 0.45517,0.25305 0.47307,0.25305 0.0657,0 1.57965,0.94985 2.50351,1.57074 2.08746,1.40293 5.35566,3.85706 7.20859,5.41303 0.27849,0.23386 1.05664,0.86547 1.72923,1.40358 5.2986,4.23924 9.58478,9.28986 13.19735,15.55111 0.84496,1.46446 0.88019,1.54767 1.25752,2.97046 1.0155,3.829153 1.62325,7.866753 1.91343,12.711853 0.15583,2.60205 0.10489,8.60203 -0.11722,13.80393 -0.1128,2.64193 -0.12555,3.78009 -0.0998,8.9114 0.0567,11.2986 0.0299,12.83429 -0.2938,16.81808 -2.25346,27.73643 -15.86671,52.15669 -36.06283,64.69163 -8.54561,5.30392 -17.77061,8.28305 -27.72992,8.9551 -1.72022,0.11609 -5.8203,0.11663 -7.38299,9.7e-4 -10.73729,-0.7946 -21.06569,-4.87764 -31.73092,-12.54391 -8.940588,-6.42658 -17.980812,-15.24567 -29.027017,-28.31697 -2.224954,-2.63285 -8.943717,-10.84113 -12.239455,-14.95287 l -2.737783,-3.41564 -4.307826,5.26425 c -9.077675,11.09309 -12.896198,15.58652 -17.729718,20.86335 -12.308129,13.43699 -23.168752,22.05983 -34.3583131,27.27895 -6.7410415,3.1442 -13.3332439,4.95093 -20.8088039,5.70309 -1.275664,0.12835 -7.978878,0.24562 -8.983152,0.15717 z m 9.177378,-33.44676 c 6.363643,-0.76141 12.2178816,-2.90234 18.54709286,-6.78278 6.85506004,-4.20285 13.51331614,-9.9541 21.12556814,-18.24779 2.818293,-3.07058 4.691001,-5.23736 8.495116,-9.82909 2.632429,-3.17746 10.856339,-13.57039 10.856339,-13.71965 0,-0.0563 -0.554539,-0.74824 -1.232312,-1.53768 -1.647095,-1.91847 -2.730265,-3.22056 -8.244032,-9.9102 C 23.874651,122.05571 21.736238,119.55018 18.28854,115.80715 7.0389779,103.59392 -2.7091288,96.847507 -12.6798,94.374757 c -1.364001,-0.33828 -2.751479,-0.59854 -4.294932,-0.80563 -1.384505,-0.18576 -5.547917,-0.26352 -6.97652,-0.1303 -6.826413,0.63657 -13.119917,3.25231 -18.669496,7.759493 -3.863647,3.13792 -7.259837,7.09619 -10.027355,11.6869 -4.538772,7.52884 -7.213548,16.3851 -7.795905,25.81247 -0.09382,1.51876 -0.09328,5.55475 9.8e-4,7.27069 0.843118,15.3496 6.472468,28.4228 15.732229,36.53543 5.730557,5.02064 12.443815,7.83834 19.9859,8.38854 1.043842,0.0761 5.092362,-0.0269 6.182994,-0.15742 z"
         style="color:#000000;font-style:normal;font-variant:normal;font-weight:normal;font-stretch:normal;font-size:medium;line-height:normal;font-family:sans-serif;font-variant-ligatures:normal;font-variant-position:normal;font-variant-caps:normal;font-variant-numeric:normal;font-variant-alternates:normal;font-variant-east-asian:normal;font-feature-settings:normal;font-variation-settings:normal;text-indent:0;text-align:start;text-decoration:none;text-decoration-line:none;text-decoration-style:solid;text-decoration-color:#000000;letter-spacing:normal;word-spacing:normal;text-transform:none;writing-mode:lr-tb;direction:ltr;text-orientation:mixed;dominant-baseline:auto;baseline-shift:baseline;text-anchor:start;white-space:normal;shape-padding:0;shape-margin:0;inline-size:0;clip-rule:nonzero;display:inline;overflow:visible;visibility:visible;isolation:auto;mix-blend-mode:normal;color-interpolation:sRGB;color-interpolation-filters:linearRGB;solid-color:#000000;solid-opacity:1;vector-effect:none;fill:#00ffff;fill-opacity:1;fill-rule:nonzero;stroke:none;stroke-width:0.0784571;stroke-linecap:butt;stroke-linejoin:miter;stroke-miterlimit:4;stroke-dasharray:none;stroke-dashoffset:0;stroke-opacity:1;color-rendering:auto;image-rendering:auto;shape-rendering:auto;text-rendering:auto;enable-background:accumulate;stop-color:#000000;stop-opacity:1" />
      <path
         transform="matrix(0.26458333,0,0,0.26458333,-152.78818,-13.577905)"
         d="m 497.75,277.98633 c -7.86013,0.028 -15.88173,0.50072 -24.13086,1.41015 -52.89172,5.83112 -102.72511,31.04757 -142.29297,72.00196 -50.12916,51.88577 -81.73852,125.67841 -88.16992,205.80859 -3.31395,41.28922 -0.0981,87.11654 8.93945,127.33789 20.70586,92.1507 71.57703,162.20498 141.32618,194.59375 22.82451,10.59886 48.21614,17.23751 73.27929,19.1543 2.56278,0.19578 5.25929,0.40833 5.98828,0.47265 h 0.006 c 1.93614,0.17008 9.1946,0.13708 16.60352,0.008 7.41221,-0.12964 14.93718,-0.35309 17.36914,-0.59766 28.26898,-2.84428 53.20547,-9.68026 78.69726,-21.57031 42.31465,-19.73669 83.37348,-52.34447 129.90039,-103.13867 18.27048,-19.94616 32.70974,-36.93409 67.01954,-78.86133 l 16.1582,-19.75391 10.24023,12.77149 c 12.45761,15.54202 37.84937,46.56106 46.26172,56.51562 41.75396,49.40871 75.92747,82.75148 109.73242,107.05078 40.32603,28.98683 79.39363,44.43206 120.00583,47.4375 5.9253,0.43858 21.4084,0.4322 27.9258,-0.008 37.6647,-2.54158 72.5571,-13.81073 104.875,-33.86914 76.3797,-47.4059 127.8449,-139.74163 136.3652,-244.61328 1.2236,-15.05926 1.3295,-20.87641 1.1152,-63.58008 -0.097,-19.39355 -0.049,-23.68404 0.377,-33.66797 0.8396,-19.66462 1.0332,-42.34139 0.4434,-52.1914 -1.0972,-18.31964 -3.4012,-33.58712 -7.2422,-48.07032 -1.4264,-5.3783 -1.5679,-5.72814 -4.7618,-11.26367 -13.6619,-23.67864 -29.8754,-42.78647 -49.916,-58.82031 -2.5414,-2.0333 -5.4841,-4.41787 -6.5332,-5.29883 -7.0101,-5.88667 -19.3651,-15.1636 -27.2617,-20.4707 -1.7479,-1.17473 -4.05,-2.66191 -5.9492,-3.85352 -0.9496,-0.5958 -1.8021,-1.11601 -2.4297,-1.49023 -0.3137,-0.18713 -0.5699,-0.33905 -0.7598,-0.44336 -0.095,-0.0522 -0.1672,-0.0901 -0.2285,-0.11914 -0.03,-0.0144 -0.057,-0.0277 -0.082,-0.0371 -0.011,-0.005 -0.029,-0.0103 -0.043,-0.0137 -0.01,-0.002 -0.016,0.001 -0.023,0 0,-10e-4 -0.014,-0.0103 -0.029,-0.0156 -0.026,-0.011 -0.063,-0.0271 -0.1113,-0.0508 -0.096,-0.0472 -0.2296,-0.11305 -0.3907,-0.19922 -0.3224,-0.17235 -0.7541,-0.41733 -1.2109,-0.67969 -2.6138,-1.50135 -5.7551,-2.60576 -8.1426,-2.85742 -1.9091,-0.20114 -2.4527,-0.11682 -4.2011,0.62891 -1.1282,0.48113 -2.0086,1.07977 -2.8555,2.03711 -0.847,0.95734 -1.6599,2.2718 -2.6582,4.18554 -0.2446,0.46898 -0.65,1.48499 -1.1446,2.8125 -0.4946,1.32751 -1.0716,2.95576 -1.6386,4.61329 -1.1341,3.31504 -2.228,6.73777 -2.5391,8.12695 -0.023,0.0972 -0.17,0.69283 -0.4199,1.64648 -0.2498,0.95366 -0.604,2.27409 -1.0274,3.875 -0.8467,3.20183 -1.9926,7.50569 -3.2265,12.13672 -9.6498,36.21776 -12.1664,48.10791 -14.2246,67.21875 -1.0841,10.06814 -1.3279,15.08639 -1.3203,26.59766 0.011,19.90862 1.8223,37.90539 5.4843,54.51562 0.7525,3.41292 0.9566,3.91671 3.1075,7.63868 2.1823,3.77657 6.1692,10.35844 11.3027,18.6621 12.259,19.82918 16.4951,28.06977 19.082,37.10938 0.4678,1.63449 0.9531,3.33848 1.084,3.79297 0.4993,1.73416 1.3108,6.25989 1.7656,9.88476 0.6817,5.42778 0.6771,21.04596 -0.01,27.54297 -3.9166,37.16447 -15.3551,69.58392 -34.541,97.89844 -3.7217,5.49245 -12.872,16.86514 -17.25,21.4375 -22.6961,23.70365 -49.6752,38.19427 -78.7363,42.29688 -12.5986,1.77849 -27.1523,1.47616 -40.0313,-0.82618 -40.9909,-7.3279 -80.3321,-33.17864 -126.14251,-82.92187 -13.71622,-14.8938 -21.35471,-23.86063 -51.38477,-60.31641 -9.9595,-12.09059 -20.61899,-24.94436 -23.69531,-28.56836 -3.07376,-3.62101 -6.3683,-7.49657 -7.3164,-8.61523 l -1.64649,-1.94141 6.84375,-8.7539 c 10.46221,-13.38822 24.49392,-30.7588 29.41016,-36.41407 2.41744,-2.78082 4.86111,-5.67838 5.46093,-6.46093 1.086,-1.41672 3.42094,-5.88132 12.39454,-23.6504 10.71199,-21.21135 19.09847,-36.62229 29.36523,-53.97656 2.0245,-3.42213 14.13004,-24.00565 17.87109,-30.38476 1.172,-1.99846 2.75711,-4.73983 3.5293,-6.10352 0.77106,-1.3615 2.72527,-4.78085 4.33399,-7.5957 4.04023,-7.06949 11.31455,-20.59457 13.30859,-24.73047 3.66981,-7.6119 5.43459,-13.16015 5.29297,-16.76367 -0.0461,-1.17523 -0.14255,-1.93805 -0.44336,-2.57617 -0.30085,-0.63812 -0.7968,-1.12362 -1.59375,-1.73438 -0.36473,-0.27934 -0.76252,-0.472 -1.32813,-0.60547 -0.56556,-0.13345 -1.29832,-0.21605 -2.36328,-0.28125 -7.3389,-0.44929 -19.64576,4.36064 -39.27929,15.27344 -1.75735,0.97676 -5.65585,3.13576 -8.65821,4.79883 -3.00265,1.66323 -7.13267,3.9664 -9.18359,5.11523 -6.46011,3.61866 -13.64814,7.59259 -19.70899,10.90235 -3.22236,1.75969 -7.95608,4.35869 -10.51953,5.77343 -4.20779,2.32224 -10.8464,5.8671 -26.89258,14.37305 -6.03226,3.19765 -13.07473,6.83093 -14.88867,7.68359 -0.41819,0.19654 -0.99944,0.6605 -1.75,1.37305 -0.75055,0.71259 -1.66208,1.67206 -2.70898,2.84961 -1.77572,1.99733 -8.05327,9.04122 -13.95117,15.64844 -12.57595,14.08856 -21.30848,24.26379 -33.5586,39.11719 -2.44574,2.96549 -4.68374,5.66493 -6.32617,7.61914 -0.82121,0.97708 -1.49168,1.76962 -1.96289,2.3164 -0.23562,0.27326 -0.42609,0.48619 -0.55469,0.62891 -0.0439,0.0487 -0.0736,0.0718 -0.10351,0.10351 -0.0558,-0.062 -0.13561,-0.14297 -0.23633,-0.25976 -0.21343,-0.24756 -0.51844,-0.61264 -0.91406,-1.08399 -0.79125,-0.94269 -1.92256,-2.31104 -3.31446,-3.99414 -2.78379,-3.36623 -6.60201,-8.00949 -10.77929,-13.11718 C 750.52839,443.52556 738.34638,429.0046 722.91992,411.59766 664.56258,345.74833 616.01906,308.14719 565.80469,289.92969 543.44549,281.81793 521.3304,277.90276 497.75,277.98633 Z m 0,0.29492 c 23.54679,-0.0841 45.62213,3.82887 67.95117,11.92969 50.14901,18.19379 98.65769,55.75772 156.99805,121.58789 15.42354,17.40364 27.59393,31.9184 60.3457,71.96484 4.17756,5.10803 8.00084,9.75039 10.78516,13.11719 1.39215,1.68344 2.52233,3.04258 3.31445,3.98633 0.39606,0.47187 0.70874,0.8443 0.92383,1.09375 0.10753,0.12472 0.19055,0.21391 0.25,0.27929 0.0299,0.034 0.055,0.0628 0.0742,0.082 0.009,0.0113 0.0191,0.0139 0.0293,0.0215 0.005,0.004 0.0141,0.0234 0.0156,0.0234 7.8e-4,5.3e-4 0.0207,0.008 0.0215,0.008 5.8e-4,2.6e-4 0.066,0.0156 0.0664,0.0156 3.7e-4,0 0.0444,-0.008 0.0449,-0.008 4.9e-4,-1.5e-4 0.0207,-0.008 0.0215,-0.008 10e-4,-6e-4 0.0154,-0.0118 0.0215,-0.0156 0.0113,-0.008 0.0233,-0.0139 0.0312,-0.0215 0.0155,-0.0151 0.0312,-0.0312 0.0508,-0.0527 0.0389,-0.0397 0.0886,-0.0892 0.1543,-0.16211 0.13145,-0.14589 0.31834,-0.36049 0.55469,-0.63477 0.47269,-0.54852 1.14123,-1.34075 1.96289,-2.31836 1.64332,-1.95522 3.88775,-4.6512 6.33398,-7.61719 12.24842,-14.85135 20.97668,-25.02284 33.55078,-39.10937 5.89797,-6.6073 12.17474,-13.65219 13.95117,-15.65039 1.04311,-1.17328 1.95403,-2.12438 2.69532,-2.82813 0.74128,-0.70378 1.32121,-1.1573 1.66797,-1.32031 1.83993,-0.86491 8.86981,-4.49258 14.90429,-7.69141 16.04644,-8.50608 22.68703,-12.05662 26.89844,-14.38085 2.56265,-1.41431 7.29767,-4.01207 10.51953,-5.77149 6.06199,-3.31038 13.24202,-7.28508 19.70313,-10.9043 2.04994,-1.14828 6.18726,-3.45225 9.18945,-5.11523 3.00248,-1.66314 6.89465,-3.82187 8.65234,-4.79883 19.61974,-10.90513 31.9283,-15.67643 39.11719,-15.23633 1.05857,0.0648 1.78153,0.14721 2.31641,0.27344 0.53484,0.1262 0.88373,0.29017 1.21875,0.54688 0.78383,0.60072 1.23381,1.05353 1.50586,1.63086 0.27212,0.57732 0.36844,1.30351 0.41406,2.46679 0.1372,3.49406 -1.60229,9.02863 -5.26367,16.62305 -1.98116,4.10914 -9.26718,17.6457 -13.30274,24.70703 -1.6089,2.81513 -3.56032,6.23307 -4.33203,7.5957 -0.77038,1.36052 -2.35813,4.10844 -3.5293,6.10547 -3.74063,6.37839 -15.84809,26.95731 -17.87109,30.37696 -10.26991,17.35955 -18.65904,32.78269 -29.37305,53.99804 -8.97326,17.76839 -11.3312,22.26083 -12.35742,23.59961 -0.57675,0.75239 -3.04716,3.66645 -5.46289,6.44531 -4.93023,5.67137 -18.95124,23.03815 -29.41601,36.42969 l -6.99024,8.94531 1.80078,2.12696 c 0.94837,1.11896 4.24068,4.99422 7.31446,8.61523 3.07121,3.61799 13.73822,16.47638 23.69726,28.56641 30.03057,36.45641 37.68116,45.43498 51.40039,60.33203 45.83305,49.7678 85.22534,75.66641 126.30274,83.00976 12.9127,2.30839 27.4866,2.61165 40.1211,0.82813 29.1318,-4.11258 56.1766,-18.64383 78.9121,-42.38867 4.4051,-4.60056 13.5397,-15.95081 17.2813,-21.47266 19.2142,-28.35624 30.6707,-60.83264 34.5918,-98.03906 0.6898,-6.54592 0.698,-22.11228 0.01,-27.60938 -0.4564,-3.63756 -1.258,-8.14428 -1.7715,-9.92773 -0.1307,-0.45351 -0.626,-2.16047 -1.0937,-3.79492 -2.5974,-9.07612 -6.8491,-17.34717 -19.1114,-37.18164 -5.1327,-8.30242 -9.122,-14.88392 -11.3007,-18.6543 -2.1493,-3.71921 -2.3209,-4.14255 -3.0723,-7.55078 -3.6568,-16.58634 -5.4639,-34.56629 -5.4766,-54.45703 -0.01,-11.50692 0.2367,-16.50577 1.3203,-26.56836 2.0569,-19.09829 4.5699,-30.95147 14.2188,-67.16602 1.2339,-4.63118 2.3798,-8.93464 3.2266,-12.13672 0.4233,-1.60103 0.7676,-2.92876 1.0175,-3.88281 0.2499,-0.95405 0.3987,-1.52446 0.4278,-1.65429 0.3012,-1.34558 1.4005,-4.7867 2.5332,-8.09766 0.5663,-1.65548 1.1376,-3.28157 1.6308,-4.60547 0.4933,-1.3239 0.9118,-2.35196 1.1368,-2.7832 0.9935,-1.90468 1.7933,-3.19236 2.6132,-4.11914 0.82,-0.92679 1.6556,-1.49446 2.7539,-1.96289 1.7367,-0.74069 2.1561,-0.80532 4.0528,-0.60547 2.324,0.24495 5.4443,1.33691 8.0234,2.81836 0.459,0.26366 0.8928,0.50532 1.2188,0.67968 0.1629,0.0872 0.2965,0.15707 0.3984,0.20703 0.051,0.0249 0.09,0.0439 0.125,0.0586 0.019,0.007 0.037,0.0181 0.051,0.0234 0.01,0.003 0.012,0.003 0.023,0.006 0.01,0.002 0.02,-10e-4 0.031,0 0.011,0.005 0.034,0.0188 0.059,0.0312 0.052,0.0246 0.1285,0.0588 0.2208,0.10937 0.184,0.10118 0.4418,0.25723 0.7538,0.44336 0.6242,0.37225 1.4716,0.88935 2.42,1.48438 1.8968,1.19005 4.1995,2.67375 5.9434,3.8457 7.8826,5.29772 20.2361,14.57227 27.2324,20.44726 1.056,0.88681 3.9963,3.27429 6.539,5.3086 20.0118,16.0108 36.1981,35.08584 49.8438,58.73633 3.1932,5.5344 3.3124,5.81475 4.7383,11.1914 3.8352,14.4616 6.1302,29.70698 7.2265,48.01172 0.5881,9.81902 0.396,32.50333 -0.4433,52.16016 -0.4264,9.9866 -0.4724,14.28932 -0.375,33.68359 0.2143,42.70307 0.1079,48.50417 -1.1153,63.55859 -8.5136,104.78956 -59.9485,197.03836 -136.2324,244.38477 -32.2788,20.03422 -67.1161,31.28574 -104.7344,33.82422 -6.4858,0.43767 -21.9936,0.44336 -27.8808,0.008 -40.5516,-3.00098 -79.5606,-18.42179 -119.85358,-47.38476 -33.7793,-24.28018 -67.94454,-57.60395 -109.68945,-107.00196 -8.4062,-9.94726 -33.79886,-40.96896 -46.25391,-56.50781 l -10.46094,-13.05078 -16.39453,20.03516 c -34.30884,41.92603 -48.73949,58.90404 -67.00586,78.8457 -46.51091,50.77674 -87.54268,83.34953 -129.81055,103.06445 -25.46411,11.87713 -50.36237,18.70749 -78.60156,21.54883 -2.38944,0.24038 -9.93811,0.46802 -17.34765,0.59766 -7.40955,0.12963 -14.71667,0.15659 -16.58008,-0.008 -0.73561,-0.065 -3.42301,-0.27687 -5.98633,-0.47265 -25.02645,-1.91399 -50.38654,-8.5436 -73.17773,-19.12696 -69.653,-32.34302 -120.47599,-102.3058 -141.16612,-194.38654 -9.03029,-40.18901 -12.24296,-85.99937 -8.93164,-127.25586 6.42636,-80.06744 38.01306,-153.79352 88.08789,-205.62305 39.52368,-40.90867 89.29005,-66.09093 142.10938,-71.91406 8.23943,-0.90837 16.25263,-1.38214 24.10156,-1.41016 z m -1.46875,125.79102 c -3.8344,-0.0135 -7.31679,0.0659 -9.35352,0.25585 -25.82961,2.40864 -49.64114,12.30549 -70.63671,29.35743 -14.61712,11.87149 -27.46741,26.84462 -37.93555,44.20898 -17.16766,28.47746 -27.28002,61.97376 -29.48242,97.62695 -0.35558,5.75638 -0.35694,20.99799 0,27.4961 3.18832,58.04572 24.47721,107.49515 59.51172,138.18945 21.68128,18.99538 47.0853,29.6605 75.62109,31.74219 3.98263,0.29027 19.24447,-0.10027 23.40039,-0.59766 24.07347,-2.88041 46.22081,-10.97753 70.15625,-25.65234 25.9238,-15.89394 51.10411,-37.64524 79.88086,-68.99805 10.65319,-11.60685 17.73294,-19.79702 32.11133,-37.15234 4.97694,-6.00741 15.23338,-18.83044 24.24804,-30.22266 4.50733,-5.69612 8.7055,-11.03428 11.77539,-14.98437 1.53495,-1.97503 2.7822,-3.60134 3.65235,-4.75391 0.43507,-0.5763 0.78021,-1.03577 1.01172,-1.35937 0.11576,-0.16177 0.20421,-0.28806 0.26562,-0.38282 0.0306,-0.0472 0.0483,-0.0859 0.0664,-0.11914 0.009,-0.0151 0.0225,-0.033 0.0293,-0.0508 0.003,-0.008 0.004,-0.0199 0.008,-0.0312 0.003,-0.0113 0.008,-0.0407 0.008,-0.043 0,-0.003 -0.005,-0.0347 -0.008,-0.0449 -0.003,-0.0113 -0.004,-0.0258 -0.008,-0.0371 -0.007,-0.0189 -0.0117,-0.0393 -0.0215,-0.0586 -0.0197,-0.0389 -0.0493,-0.0834 -0.082,-0.13477 -0.0655,-0.1028 -0.15994,-0.23607 -0.2793,-0.39844 -0.23871,-0.32466 -0.58105,-0.76339 -1.0039,-1.29101 -0.84571,-1.05528 -2.01121,-2.45631 -3.29297,-3.94922 -6.22457,-7.25015 -10.31101,-12.16558 -31.15039,-37.44922 -26.95294,-32.70096 -35.03996,-42.1736 -48.07227,-56.32226 -42.52832,-46.17018 -79.39743,-71.69718 -117.12109,-81.05274 -5.16084,-1.27992 -10.40795,-2.2655 -16.2461,-3.04883 -3.29137,-0.4416 -10.66207,-0.71962 -17.05273,-0.74218 z m -0.004,0.30078 c 6.38586,0.0241 13.76213,0.30032 17.01172,0.73633 5.82891,0.78208 11.06903,1.76385 16.21875,3.04101 37.64519,9.3361 74.46511,34.81602 116.97266,80.96484 13.02903,14.14511 21.1102,23.61034 48.0625,56.31055 20.83949,25.28376 24.93425,30.20338 31.16015,37.45508 1.27991,1.49076 2.4425,2.88994 3.28516,3.94141 0.42133,0.52573 0.76176,0.96642 0.9961,1.28515 0.11716,0.1595 0.20647,0.28999 0.26562,0.38281 0.0272,0.0427 0.0459,0.0789 0.0586,0.10352 -0.0125,0.0227 -0.0263,0.0521 -0.0508,0.0898 -0.0568,0.0877 -0.14348,0.21513 -0.25781,0.375 -0.22866,0.31975 -0.56963,0.77632 -1.00391,1.35157 -0.86854,1.15045 -2.1198,2.77166 -3.65429,4.74609 -3.06899,3.94893 -7.26844,9.29066 -11.77539,14.98633 -9.01393,11.39131 -19.2698,24.211 -24.24219,30.21289 -14.37713,17.35381 -21.45307,25.54265 -32.10352,37.14648 -28.76468,31.33966 -53.91852,53.06382 -79.8125,68.93946 -23.90741,14.65765 -46.0094,22.74011 -70.03906,25.61523 -4.08823,0.48926 -19.43397,0.88252 -23.3418,0.59766 -28.47525,-2.07731 -53.81486,-12.71202 -75.45117,-31.66797 -34.96054,-30.62952 -56.22334,-79.99967 -59.4082,-137.98242 -0.35558,-6.47278 -0.35361,-21.74473 0,-27.46875 2.19966,-35.60882 12.29633,-69.05088 29.4375,-97.48438 10.45167,-17.33707 23.28074,-32.28854 37.86914,-44.13672 20.95399,-17.01815 44.71081,-26.88779 70.48242,-29.29101 2.01286,-0.18771 5.4888,-0.26447 9.32031,-0.25 z"
         style="color:#000000;font-style:normal;font-variant:normal;font-weight:normal;font-stretch:normal;font-size:medium;line-height:normal;font-family:sans-serif;font-variant-ligatures:normal;font-variant-position:normal;font-variant-caps:normal;font-variant-numeric:normal;font-variant-alternates:normal;font-variant-east-asian:normal;font-feature-settings:normal;font-variation-settings:normal;text-indent:0;text-align:start;text-decoration:none;text-decoration-line:none;text-decoration-style:solid;text-decoration-color:#000000;letter-spacing:normal;word-spacing:normal;text-transform:none;writing-mode:lr-tb;direction:ltr;text-orientation:mixed;dominant-baseline:auto;baseline-shift:baseline;text-anchor:start;white-space:normal;shape-padding:0;shape-margin:0;inline-size:0;clip-rule:nonzero;display:inline;overflow:visible;visibility:visible;isolation:auto;mix-blend-mode:normal;color-interpolation:sRGB;color-interpolation-filters:linearRGB;solid-color:#000000;solid-opacity:1;vector-effect:none;fill:#00ffff;fill-opacity:1;fill-rule:nonzero;stroke:none;stroke-width:0.296531;stroke-linecap:butt;stroke-linejoin:miter;stroke-miterlimit:4;stroke-dasharray:none;stroke-dashoffset:0;stroke-opacity:1;color-rendering:auto;image-rendering:auto;shape-rendering:auto;text-rendering:auto;enable-background:accumulate;stop-color:#000000;stop-opacity:1"
         id="path58" />
    </g>
  </g>
</svg>
